<svg width="67" height="67" viewBox="0 0 67 67" fill="none" xmlns="http://www.w3.org/2000/svg">
<path d="M60.7188 33.5H50.25V25.125C50.25 20.5057 54.0057 16.75 58.625 16.75H59.6719C61.4123 16.75 62.8125 15.3498 62.8125 13.6094V7.32812C62.8125 5.5877 61.4123 4.1875 59.6719 4.1875H58.625C47.057 4.1875 37.6875 13.557 37.6875 25.125V56.5312C37.6875 59.999 40.501 62.8125 43.9688 62.8125H60.7188C64.1865 62.8125 67 59.999 67 56.5312V39.7812C67 36.3135 64.1865 33.5 60.7188 33.5ZM23.0312 33.5H12.5625V25.125C12.5625 20.5057 16.3182 16.75 20.9375 16.75H21.9844C23.7248 16.75 25.125 15.3498 25.125 13.6094V7.32812C25.125 5.5877 23.7248 4.1875 21.9844 4.1875H20.9375C9.36953 4.1875 0 13.557 0 25.125V56.5312C0 59.999 2.81348 62.8125 6.28125 62.8125H23.0312C26.499 62.8125 29.3125 59.999 29.3125 56.5312V39.7812C29.3125 36.3135 26.499 33.5 23.0312 33.5Z" fill="white"/>
</svg>
